#!OML:ASF F:\VICON\USERDATA\INSTALL\rory3\rory3.ASF
:FULLY-SPECIFIED
:DEGREES
1498
root 5.50562 17.4928 1.06984 19.4922 2.88908 0.782345
lowerback -8.98144 -1.77363 8.68983
upperback -14.1819 -2.5144 1.22985
thorax -10.6998 -2.09159 -3.46464
lowerneck -3.3329 19.4698 10.9081
upperneck 8.69322 25.4043 0.445689
head 4.40195 12.8982 0.0755935
rclavicle -3.37934e-015 -1.59028e-014
rhumerus -8.57613 -29.083 28.9283
rradius 112.606
rwrist -61.6903
rhand -2.48699 -41.6701
rfingers 7.12502
rthumb 23.2062 -70.2921
lclavicle -3.37934e-015 -1.59028e-014
lhumerus 24.4509 27.2872 -13.1522
lradius 32.3637
lwrist 55.6615
lhand -20.3645 -14.3348
lfingers 7.12502
lthumb 5.98791 15.5606
rfemur -12.1944 9.66613 -8.52036
rtibia 10.4126
rfoot -13.8412 -22.5983
rtoes 39.7149
lfemur -19.7008 2.68559 -30.3359
ltibia 16.4005
lfoot -15.2268 1.53949
ltoes 9.71789
1499
root 5.50546 17.4939 1.06719 19.5189 2.77447 0.748817
lowerback -8.97589 -1.74609 8.68799
upperback -14.1264 -2.48096 1.22468
thorax -10.6316 -2.07144 -3.47215
lowerneck -3.67166 19.4809 10.9321
upperneck 8.84366 25.378 0.431101
head 4.5049 12.8831 0.112926
rclavicle -1.66979e-014 -1.11319e-014
rhumerus -8.65411 -29.2586 28.901
rradius 112.568
rwrist -61.7644
rhand -2.06461 -41.7543
rfingers 7.12502
rthumb 23.6114 -70.3246
lclavicle -1.66979e-014 -1.11319e-014
lhumerus 24.4957 27.5516 -13.1144
lradius 32.2792
lwrist 55.4393
lhand -20.4624 -14.2123
lfingers 7.12502
lthumb 5.89345 15.6857
rfemur -12.3493 9.60023 -8.52486
rtibia 10.496
rfoot -13.4555 -22.7231
rtoes 39.358
lfemur -19.7745 2.78608 -30.35
ltibia 16.4437
lfoot -15.2459 1.59643
ltoes 9.51698
1500
root 5.50555 17.4953 1.06523 19.5184 2.68929 0.639214
lowerback -8.96307 -1.71682 8.75774
upperback -14.0699 -2.44409 1.24525
thorax -10.5713 -2.05525 -3.49066
lowerneck -3.94244 19.4996 10.991
upperneck 9.0135 25.3684 0.413751
head 4.60902 12.8779 0.142351
rclavicle -6.42074e-014 0
rhumerus -8.67786 -29.413 28.8298
rradius 112.503
rwrist -61.7573
rhand -2.04373 -41.7354
rfingers 7.12502
rthumb 23.6315 -70.3031
lclavicle -6.42074e-014 0
lhumerus 24.4246 27.5411 -13.2523
lradius 32.2874
lwrist 55.6389
lhand -21.085 -14.2428
lfingers 7.12502
lthumb 5.29231 15.6711
rfemur -12.4203 9.56941 -8.43626
rtibia 10.4717
rfoot -13.1251 -22.7873
rtoes 38.969
lfemur -19.8253 2.79595 -30.2467
ltibia 16.5264
lfoot -15.2687 1.68994
ltoes 9.73543
1501
root 5.50511 17.4974 1.062 19.5207 2.65016 0.573379
lowerback -8.94723 -1.7024 8.79223
upperback -14.0833 -2.42228 1.26142
thorax -10.5957 -2.04812 -3.49108
lowerneck -3.97095 19.5221 10.9643
upperneck 9.14147 25.3858 0.538187
head 4.63513 12.8936 0.18948
rclavicle 4.57205e-015 7.15625e-015
rhumerus -8.62636 -29.4189 28.7402
rradius 112.477
rwrist -61.7185
rhand -2.28066 -41.6422
rfingers 7.12502
rthumb 23.4042 -70.239
lclavicle 4.57205e-015 7.15625e-015
lhumerus 24.4207 27.5431 -13.2616
lradius 32.2626
lwrist 55.6647
lhand -21.1244 -14.3236
lfingers 7.12502
lthumb 5.25428 15.5913
rfemur -12.424 9.59527 -8.3769
rtibia 10.3819
rfoot -12.899 -22.911
rtoes 38.5415
lfemur -19.8744 2.73765 -30.1685
ltibia 16.6062
lfoot -15.2655 1.8013
ltoes 9.76393
1502
root 5.50342 17.4979 1.05774 19.5221 2.57895 0.698303
lowerback -8.95682 -1.70944 8.62623
upperback -14.0559 -2.43331 1.22542
thorax -10.5453 -2.03668 -3.44066
lowerneck -4.04266 19.5568 10.9121
upperneck 9.15931 25.421 0.597286
head 4.6391 12.9117 0.220909
rclavicle -2.127e-014 2.78299e-014
rhumerus -8.73818 -29.4129 28.8457
rradius 112.566
rwrist -61.8133
rhand -2.76439 -41.6703
rfingers 7.12502
rthumb 22.9401 -70.3255
lclavicle -2.127e-014 2.78299e-014
lhumerus 24.1486 27.2556 -13.6518
lradius 32.4133
lwrist 56.2406
lhand -21.0242 -14.239
lfingers 7.12502
lthumb 5.35101 15.6735
rfemur -12.3822 9.58522 -8.52735
rtibia 10.2475
rfoot -12.6209 -23.1225
rtoes 38.1478
lfemur -19.8946 2.71174 -30.3117
ltibia 16.6326
lfoot -15.2971 1.87037
ltoes 9.45049
1503
root 5.50449 17.4964 1.06276 19.3533 2.3441 0.688587
lowerback -8.89387 -1.64446 8.59474
upperback -13.955 -2.34651 1.20348
thorax -10.4472 -1.98559 -3.45051
lowerneck -3.995 19.5553 10.8953
upperneck 8.95067 25.4352 0.484597
head 4.579 12.9097 0.17592
rclavicle 1.03368e-014 -2.14687e-014
rhumerus -8.856 -29.3704 28.9821
rradius 112.638
rwrist -61.904
rhand -3.11676 -41.6124
rfingers 7.12502
rthumb 22.6019 -70.3092
lclavicle 1.03368e-014 -2.14687e-014
lhumerus 23.8713 26.8698 -14.0653
lradius 32.5866
lwrist 56.8584
lhand -21.2326 -14.0298
lfingers 7.12502
lthumb 5.14979 15.8877
rfemur -12.3278 9.73562 -8.57299
rtibia 10.2376
rfoot -12.2639 -23.1845
rtoes 37.7219
lfemur -19.6817 2.87106 -30.3578
ltibia 16.5963
lfoot -15.3614 1.98615
ltoes 9.37452
